<mxfile host="app.diagrams.net" modified="2021-01-11T07:26:11.031Z" agent="5.0 (X11)" etag="Pm21tdMN6LLXSLPo19di" version="14.1.8" type="github">
  <diagram id="C5RBs43oDa-KdzZeNtuy" name="Page-1">
    <mxGraphModel dx="1355" dy="799" grid="1" gridSize="10" guides="1" tooltips="1" connect="1" arrows="1" fold="1" page="1" pageScale="1" pageWidth="827" pageHeight="1169" math="0" shadow="0">
      <root>
        <mxCell id="WIyWlLk6GJQsqaUBKTNV-0" />
        <mxCell id="WIyWlLk6GJQsqaUBKTNV-1" parent="WIyWlLk6GJQsqaUBKTNV-0" />
        <mxCell id="zAImhg-2p-ZFRqmli4V1-4" value="" style="edgeStyle=orthogonalEdgeStyle;rounded=0;orthogonalLoop=1;jettySize=auto;html=1;" edge="1" parent="WIyWlLk6GJQsqaUBKTNV-1" source="zAImhg-2p-ZFRqmli4V1-0" target="zAImhg-2p-ZFRqmli4V1-1">
          <mxGeometry relative="1" as="geometry" />
        </mxCell>
        <mxCell id="zAImhg-2p-ZFRqmli4V1-0" value="Radar Utility Examination" style="rounded=0;whiteSpace=wrap;html=1;" vertex="1" parent="WIyWlLk6GJQsqaUBKTNV-1">
          <mxGeometry x="120" y="200" width="120" height="60" as="geometry" />
        </mxCell>
        <mxCell id="zAImhg-2p-ZFRqmli4V1-5" value="" style="edgeStyle=orthogonalEdgeStyle;rounded=0;orthogonalLoop=1;jettySize=auto;html=1;" edge="1" parent="WIyWlLk6GJQsqaUBKTNV-1" source="zAImhg-2p-ZFRqmli4V1-1" target="zAImhg-2p-ZFRqmli4V1-2">
          <mxGeometry relative="1" as="geometry" />
        </mxCell>
        <mxCell id="zAImhg-2p-ZFRqmli4V1-1" value="State Estimation Method" style="rounded=0;whiteSpace=wrap;html=1;" vertex="1" parent="WIyWlLk6GJQsqaUBKTNV-1">
          <mxGeometry x="270" y="200" width="120" height="60" as="geometry" />
        </mxCell>
        <mxCell id="zAImhg-2p-ZFRqmli4V1-6" value="" style="edgeStyle=orthogonalEdgeStyle;rounded=0;orthogonalLoop=1;jettySize=auto;html=1;" edge="1" parent="WIyWlLk6GJQsqaUBKTNV-1" source="zAImhg-2p-ZFRqmli4V1-2" target="zAImhg-2p-ZFRqmli4V1-3">
          <mxGeometry relative="1" as="geometry" />
        </mxCell>
        <mxCell id="zAImhg-2p-ZFRqmli4V1-2" value="Velocity calculation" style="whiteSpace=wrap;html=1;" vertex="1" parent="WIyWlLk6GJQsqaUBKTNV-1">
          <mxGeometry x="420" y="200" width="120" height="60" as="geometry" />
        </mxCell>
        <mxCell id="zAImhg-2p-ZFRqmli4V1-3" value="Error Propagation" style="whiteSpace=wrap;html=1;" vertex="1" parent="WIyWlLk6GJQsqaUBKTNV-1">
          <mxGeometry x="570" y="200" width="120" height="60" as="geometry" />
        </mxCell>
      </root>
    </mxGraphModel>
  </diagram>
</mxfile>
